<?xml version="1.0" encoding="UTF-8"?>
<svg version="1.1" viewBox="0 0 96 120" xmlns="http://www.w3.org/2000/svg" xmlns:cc="http://creativecommons.org/ns#" xmlns:dc="http://purl.org/dc/elements/1.1/" xmlns:rdf="http://www.w3.org/1999/02/22-rdf-syntax-ns#">
 <title>Artboard 34</title>
 <g transform="matrix(1.1725 0 0 1.3488 -8.5034 -5.0583)">
  <path d="m86 78.5h-22.764l-7.4472-14.894a2.0124 2.0124 0 0 0-0.8946-0.8946l-15.478-7.7382-11.701-19.5a1.9965 1.9965 0 0 0-1.23-0.9141l-14.485-3.6211v-14.438a2 2 0 0 0-4 0v64a1.9988 1.9988 0 0 0 2 2h76a2 2 0 0 0 0-4z"/>
  <path d="m33.025 27.924 9 3a1.561 1.561 0 0 0 0.4746 0.0762 1.5008 1.5008 0 0 0 1.3418-2.1712l-3-6a1.5022 1.5022 0 0 0-2.0129-0.6709l-6 3a1.5011 1.5011 0 0 0 0.1962 2.7657z"/>
  <path d="m49.44 46.561a1.5 1.5 0 0 0 1.06 0.4392h6a1.5 1.5 0 0 0 1.3413-2.1705l-3-5.9995a1.4989 1.4989 0 0 0-2.0125-0.6709l-5.9995 3a1.4993 1.4993 0 0 0-0.39 2.4021z"/>
  <path d="m67.158 59.671a1.5034 1.5034 0 0 0 1.3416 0.8291h6a1.4991 1.4991 0 0 0 1.5-1.5v-6a1.5006 1.5006 0 0 0-0.8291-1.3418l-6-3a1.5011 1.5011 0 0 0-1.7309 0.2818l-3 3a1.5 1.5 0 0 0-0.2813 1.7314z"/>
 </g>
 <metadata>
  <rdf:RDF>
   <cc:Work rdf:about="">
    <dc:title>Artboard 34</dc:title>
   </cc:Work>
  </rdf:RDF>
 </metadata>
</svg>
